<svg xmlns="http://www.w3.org/2000/svg" viewBox="0 0 32 32">
  <!-- Dark rounded background -->
  <rect width="32" height="32" rx="7" fill="#0f0f0f"/>

  <!-- Left page -->
  <path d="M5 8 C5 7.5 5.5 7 6 7 L14.5 7 L14.5 25 C10 25.5 6.5 24.5 5 23.5 Z" fill="#7c3aed"/>

  <!-- Right page -->
  <path d="M17.5 7 L26 7 C26.5 7 27 7.5 27 8 L27 23.5 C25.5 24.5 22 25.5 17.5 25 Z" fill="#7c3aed"/>

  <!-- Spine gap -->
  <rect x="14.5" y="6.5" width="3" height="18.5" rx="1" fill="#0f0f0f"/>

  <!-- Open book bottom curve -->
  <path d="M5 23 Q11 27 16 25 Q21 27 27 23" stroke="#5b21b6" stroke-width="1.5" fill="none" stroke-linecap="round"/>

  <!-- Text lines — left page -->
  <line x1="7"  y1="11.5" x2="13" y2="11.5" stroke="#ddd6fe" stroke-width="1.1" stroke-linecap="round" opacity="0.75"/>
  <line x1="7"  y1="14.5" x2="13" y2="14.5" stroke="#ddd6fe" stroke-width="1.1" stroke-linecap="round" opacity="0.75"/>
  <line x1="7"  y1="17.5" x2="11" y2="17.5" stroke="#ddd6fe" stroke-width="1.1" stroke-linecap="round" opacity="0.75"/>

  <!-- Text lines — right page -->
  <line x1="19" y1="11.5" x2="25" y2="11.5" stroke="#ddd6fe" stroke-width="1.1" stroke-linecap="round" opacity="0.75"/>
  <line x1="19" y1="14.5" x2="25" y2="14.5" stroke="#ddd6fe" stroke-width="1.1" stroke-linecap="round" opacity="0.75"/>
  <line x1="19" y1="17.5" x2="23" y2="17.5" stroke="#ddd6fe" stroke-width="1.1" stroke-linecap="round" opacity="0.75"/>
</svg>
